<mxfile host="app.diagrams.net" modified="2023-05-12T17:54:15.832Z" agent="Mozilla/5.0 (Windows NT 10.0; Win64; x64) AppleWebKit/537.36 (KHTML, like Gecko) Chrome/113.0.0.0 Safari/537.36" etag="gqywqeIfkRxU0hpN4VzI" version="21.2.9" type="device">
  <diagram name="Page-1" id="2cc2dc42-3aac-f2a9-1cec-7a8b7cbee084">
    <mxGraphModel dx="1280" dy="711" grid="1" gridSize="10" guides="1" tooltips="1" connect="1" arrows="1" fold="1" page="1" pageScale="1" pageWidth="1100" pageHeight="850" background="none" math="0" shadow="0">
      <root>
        <mxCell id="0" />
        <mxCell id="1" parent="0" />
        <mxCell id="7026571954dc6520-1" value="" style="strokeWidth=1;shadow=0;dashed=0;align=center;html=1;shape=mxgraph.mockup.containers.browserWindow;rSize=0;strokeColor=#666666;mainText=,;recursiveResize=0;rounded=0;labelBackgroundColor=none;fontFamily=Verdana;fontSize=12" parent="1" vertex="1">
          <mxGeometry x="30" y="20" width="1050" height="820" as="geometry" />
        </mxCell>
        <mxCell id="7026571954dc6520-2" value="My Course" style="strokeWidth=1;shadow=0;dashed=0;align=center;html=1;shape=mxgraph.mockup.containers.anchor;fontSize=17;fontColor=#666666;align=left;" parent="7026571954dc6520-1" vertex="1">
          <mxGeometry x="60" y="12" width="110" height="26" as="geometry" />
        </mxCell>
        <mxCell id="7026571954dc6520-3" value="https://www.eduteach.com/mycourse" style="strokeWidth=1;shadow=0;dashed=0;align=center;html=1;shape=mxgraph.mockup.containers.anchor;rSize=0;fontSize=17;fontColor=#666666;align=left;" parent="7026571954dc6520-1" vertex="1">
          <mxGeometry x="131" y="60" width="480" height="26" as="geometry" />
        </mxCell>
        <mxCell id="LoF_D8ftlG8vqLDM8Cvz-1" value="&lt;font style=&quot;font-size: 7px;&quot;&gt;Created by MLB_11.01_9&lt;/font&gt;" style="text;html=1;strokeColor=none;fillColor=none;align=center;verticalAlign=middle;whiteSpace=wrap;rounded=0;" parent="1" vertex="1">
          <mxGeometry x="460" y="810" width="181" height="30" as="geometry" />
        </mxCell>
        <mxCell id="LoF_D8ftlG8vqLDM8Cvz-2" value="" style="rounded=1;whiteSpace=wrap;html=1;" parent="1" vertex="1">
          <mxGeometry x="35" y="137" width="1040" height="40" as="geometry" />
        </mxCell>
        <mxCell id="LoF_D8ftlG8vqLDM8Cvz-3" value="" style="verticalLabelPosition=bottom;shadow=0;dashed=0;align=center;html=1;verticalAlign=top;strokeWidth=1;shape=mxgraph.mockup.graphics.simpleIcon;strokeColor=#999999;" parent="1" vertex="1">
          <mxGeometry x="56" y="142" width="50" height="30" as="geometry" />
        </mxCell>
        <mxCell id="796VdTpRs6x_GsB5o8sN-1" value="" style="rounded=0;whiteSpace=wrap;html=1;fillColor=#647687;strokeColor=#314354;fontColor=#ffffff;" parent="1" vertex="1">
          <mxGeometry x="30" y="730" width="1050" height="110" as="geometry" />
        </mxCell>
        <mxCell id="796VdTpRs6x_GsB5o8sN-2" value="" style="dashed=0;outlineConnect=0;html=1;align=center;labelPosition=center;verticalLabelPosition=bottom;verticalAlign=top;shape=mxgraph.weblogos.app_store;fillColor=#000000;strokeColor=none" parent="1" vertex="1">
          <mxGeometry x="771.8" y="781.85" width="61.2" height="20" as="geometry" />
        </mxCell>
        <mxCell id="796VdTpRs6x_GsB5o8sN-3" value="" style="dashed=0;outlineConnect=0;html=1;align=center;labelPosition=center;verticalLabelPosition=bottom;verticalAlign=top;shape=mxgraph.weblogos.app_store_iphone;fillColor=#75797C;strokeColor=none" parent="1" vertex="1">
          <mxGeometry x="842.8" y="781.85" width="61.2" height="20" as="geometry" />
        </mxCell>
        <mxCell id="796VdTpRs6x_GsB5o8sN-4" value="" style="dashed=0;outlineConnect=0;html=1;align=center;labelPosition=center;verticalLabelPosition=bottom;verticalAlign=top;shape=mxgraph.webicons.google_play;fillColor=#000000" parent="1" vertex="1">
          <mxGeometry x="688.8" y="781.25" width="69.4" height="20.6" as="geometry" />
        </mxCell>
        <mxCell id="796VdTpRs6x_GsB5o8sN-5" value="&lt;font style=&quot;font-size: 11px;&quot; color=&quot;#ffffff&quot;&gt;Get us on&lt;/font&gt;" style="text;html=1;strokeColor=none;fillColor=none;align=center;verticalAlign=middle;whiteSpace=wrap;rounded=0;" parent="1" vertex="1">
          <mxGeometry x="660" y="751.25" width="60" height="30" as="geometry" />
        </mxCell>
        <mxCell id="796VdTpRs6x_GsB5o8sN-6" value="&lt;p style=&quot;line-height: 90%;&quot;&gt;&lt;/p&gt;&lt;div style=&quot;text-align: left; line-height: 40%; font-size: 11px;&quot;&gt;&lt;p style=&quot;margin: 0px 0px 10px; color: rgb(189, 195, 199); font-family: &amp;quot;Open Sans&amp;quot;, sans-serif; font-size: 14px; line-height: 40%;&quot; dir=&quot;ltr&quot;&gt;&lt;span style=&quot;background-color: rgb(100, 118, 135);&quot;&gt;DO YOU NEED ANY&lt;/span&gt;&lt;/p&gt;&lt;p style=&quot;margin: 0px 0px 10px; color: rgb(189, 195, 199); font-family: &amp;quot;Open Sans&amp;quot;, sans-serif; font-size: 2rem; line-height: 40%;&quot;&gt;&lt;span style=&quot;font-weight: 700; font-size: 20px; background-color: rgb(100, 118, 135);&quot;&gt;SUPPORT ?&lt;/span&gt;&lt;/p&gt;&lt;/div&gt;&lt;p&gt;&lt;/p&gt;" style="text;html=1;strokeColor=none;fillColor=none;align=center;verticalAlign=middle;whiteSpace=wrap;rounded=0;" parent="1" vertex="1">
          <mxGeometry x="110" y="733.5" width="160" height="71.5" as="geometry" />
        </mxCell>
        <mxCell id="796VdTpRs6x_GsB5o8sN-7" value="" style="shape=image;html=1;verticalAlign=top;verticalLabelPosition=bottom;labelBackgroundColor=#ffffff;imageAspect=0;aspect=fixed;image=https://cdn1.iconfinder.com/data/icons/logos-brands-1/24/logo_brand_brands_logos_microsoft_store_windows-128.png" parent="1" vertex="1">
          <mxGeometry x="911" y="774.25" width="30" height="30" as="geometry" />
        </mxCell>
        <mxCell id="796VdTpRs6x_GsB5o8sN-8" value="" style="sketch=0;pointerEvents=1;shadow=0;dashed=0;html=1;strokeColor=none;fillColor=#505050;labelPosition=center;verticalLabelPosition=bottom;verticalAlign=top;outlineConnect=0;align=center;shape=mxgraph.office.concepts.calendar;" parent="1" vertex="1">
          <mxGeometry x="978" y="738" width="89" height="72" as="geometry" />
        </mxCell>
        <mxCell id="796VdTpRs6x_GsB5o8sN-9" value="&lt;p style=&quot;line-height: 90%;&quot;&gt;Visit Support&lt;br&gt;&lt;u&gt;support.eduteach.com&lt;/u&gt;&lt;/p&gt;" style="fillColor=none;strokeColor=none;html=1;fontColor=#0057D8;align=left;fontSize=12;sketch=0;" parent="1" vertex="1">
          <mxGeometry x="144" y="784.85" width="125" height="33" as="geometry" />
        </mxCell>
        <mxCell id="796VdTpRs6x_GsB5o8sN-10" value="" style="html=1;shadow=0;dashed=0;shape=mxgraph.atlassian.checkbox;fillColor=#008465;strokeColor=none;html=1;sketch=0;" parent="1" vertex="1">
          <mxGeometry x="126" y="794.85" width="14" height="14" as="geometry" />
        </mxCell>
        <mxCell id="796VdTpRs6x_GsB5o8sN-11" value="" style="sketch=0;pointerEvents=1;shadow=0;dashed=0;html=1;strokeColor=none;fillColor=#505050;labelPosition=center;verticalLabelPosition=bottom;verticalAlign=top;outlineConnect=0;align=center;shape=mxgraph.office.users.call_center_agent;" parent="1" vertex="1">
          <mxGeometry x="50" y="738.37" width="60" height="71.75" as="geometry" />
        </mxCell>
        <mxCell id="796VdTpRs6x_GsB5o8sN-12" value="" style="shape=mxgraph.signs.tech.telephone_3;html=1;pointerEvents=1;fillColor=#000000;strokeColor=none;verticalLabelPosition=bottom;verticalAlign=top;align=center;" parent="1" vertex="1">
          <mxGeometry x="277" y="755.25" width="29.31" height="40" as="geometry" />
        </mxCell>
        <mxCell id="796VdTpRs6x_GsB5o8sN-13" value="&lt;b&gt;&lt;font style=&quot;font-size: 16px;&quot;&gt;+94 71 234 5678&amp;nbsp;&lt;/font&gt;&lt;/b&gt;" style="text;html=1;strokeColor=none;fillColor=none;align=center;verticalAlign=middle;whiteSpace=wrap;rounded=0;" parent="1" vertex="1">
          <mxGeometry x="287" y="757.37" width="170" height="30" as="geometry" />
        </mxCell>
        <mxCell id="796VdTpRs6x_GsB5o8sN-14" value="" style="rounded=0;whiteSpace=wrap;html=1;fillColor=#000000;fontColor=#ffffff;strokeColor=#432D57;" parent="1" vertex="1">
          <mxGeometry x="30" y="814" width="1050" height="26" as="geometry" />
        </mxCell>
        <mxCell id="796VdTpRs6x_GsB5o8sN-15" value="&lt;font color=&quot;#ffffff&quot; style=&quot;font-size: 7px;&quot;&gt;Created by MLB_11.01_9&lt;/font&gt;" style="text;html=1;strokeColor=none;fillColor=none;align=center;verticalAlign=middle;whiteSpace=wrap;rounded=0;" parent="1" vertex="1">
          <mxGeometry x="460" y="810" width="181" height="30" as="geometry" />
        </mxCell>
        <mxCell id="796VdTpRs6x_GsB5o8sN-16" value="" style="shape=image;html=1;verticalAlign=top;verticalLabelPosition=bottom;labelBackgroundColor=#ffffff;imageAspect=0;aspect=fixed;image=https://cdn2.iconfinder.com/data/icons/social-media-2421/512/Telegram-128.png;imageBackground=default;" parent="1" vertex="1">
          <mxGeometry x="1021" y="817" width="20" height="20" as="geometry" />
        </mxCell>
        <mxCell id="796VdTpRs6x_GsB5o8sN-17" value="" style="shape=image;html=1;verticalAlign=top;verticalLabelPosition=bottom;labelBackgroundColor=#ffffff;imageAspect=0;aspect=fixed;image=https://cdn3.iconfinder.com/data/icons/picons-social/57/46-facebook-128.png;imageBackground=default;" parent="1" vertex="1">
          <mxGeometry x="990" y="817.85" width="20" height="20" as="geometry" />
        </mxCell>
        <mxCell id="796VdTpRs6x_GsB5o8sN-18" value="" style="shape=image;html=1;verticalAlign=top;verticalLabelPosition=bottom;labelBackgroundColor=#ffffff;imageAspect=0;aspect=fixed;image=https://cdn1.iconfinder.com/data/icons/social-media-circle-7/512/Circled_Twitter_svg-128.png;imageBackground=default;" parent="1" vertex="1">
          <mxGeometry x="959" y="817.85" width="20" height="20" as="geometry" />
        </mxCell>
        <mxCell id="796VdTpRs6x_GsB5o8sN-19" value="" style="shape=image;html=1;verticalAlign=top;verticalLabelPosition=bottom;labelBackgroundColor=#ffffff;imageAspect=0;aspect=fixed;image=https://cdn4.iconfinder.com/data/icons/ionicons/512/icon-social-github-128.png;imageBackground=default;" parent="1" vertex="1">
          <mxGeometry x="1051" y="817.85" width="20" height="20" as="geometry" />
        </mxCell>
        <mxCell id="796VdTpRs6x_GsB5o8sN-20" value="" style="shape=image;html=1;verticalAlign=top;verticalLabelPosition=bottom;labelBackgroundColor=#ffffff;imageAspect=0;aspect=fixed;image=https://cdn0.iconfinder.com/data/icons/eon-social-media-contact-info-2/32/in_linkedin_portfolio_social_media-128.png;imageBackground=default;" parent="1" vertex="1">
          <mxGeometry x="930" y="818" width="20" height="20" as="geometry" />
        </mxCell>
        <mxCell id="796VdTpRs6x_GsB5o8sN-21" value="" style="shape=image;html=1;verticalAlign=top;verticalLabelPosition=bottom;labelBackgroundColor=#ffffff;imageAspect=0;aspect=fixed;image=https://cdn0.iconfinder.com/data/icons/social-media-and-logos-12/32/Google_Google-128.png;imageBackground=default;" parent="1" vertex="1">
          <mxGeometry x="899" y="818" width="20" height="20" as="geometry" />
        </mxCell>
        <mxCell id="796VdTpRs6x_GsB5o8sN-22" value="&lt;font color=&quot;#ffffff&quot;&gt;https://www.eduteach.com&lt;/font&gt;" style="text;html=1;strokeColor=none;fillColor=none;align=center;verticalAlign=middle;whiteSpace=wrap;rounded=0;" parent="1" vertex="1">
          <mxGeometry x="40" y="812" width="170" height="30" as="geometry" />
        </mxCell>
        <mxCell id="796VdTpRs6x_GsB5o8sN-23" value="" style="shape=mxgraph.signs.tech.mail;html=1;pointerEvents=1;fillColor=#647687;strokeColor=#314354;verticalLabelPosition=bottom;verticalAlign=top;align=center;fontColor=#ffffff;" parent="1" vertex="1">
          <mxGeometry x="210" y="818" width="18" height="17" as="geometry" />
        </mxCell>
        <mxCell id="796VdTpRs6x_GsB5o8sN-24" value="&lt;font color=&quot;#ffffff&quot;&gt;info@eduteach.lk&lt;/font&gt;" style="text;html=1;strokeColor=none;fillColor=none;align=center;verticalAlign=middle;whiteSpace=wrap;rounded=0;" parent="1" vertex="1">
          <mxGeometry x="196" y="814" width="170" height="30" as="geometry" />
        </mxCell>
        <mxCell id="796VdTpRs6x_GsB5o8sN-25" value="" style="html=1;dashed=0;aspect=fixed;verticalLabelPosition=bottom;verticalAlign=top;align=center;shape=mxgraph.gmdl.bookmark;strokeColor=none;fillColor=#737373;shadow=0;sketch=0;" parent="1" vertex="1">
          <mxGeometry x="38" y="818" width="9" height="15" as="geometry" />
        </mxCell>
        <mxCell id="yMnLHjxeKOQUSBEiQ_IM-1" value="&lt;font size=&quot;1&quot; face=&quot;Comic Sans MS&quot; style=&quot;&quot;&gt;&lt;span style=&quot;font-size: 11px;&quot;&gt;&amp;nbsp; &amp;nbsp; &amp;nbsp; &amp;nbsp;Home&amp;nbsp; &amp;nbsp; My Courses&amp;nbsp; &amp;nbsp;Progress&amp;nbsp; &amp;nbsp; Contact Us&amp;nbsp; &amp;nbsp; &amp;nbsp;Help &amp;amp; Support&lt;/span&gt;&lt;/font&gt;" style="text;html=1;strokeColor=none;fillColor=none;align=right;verticalAlign=middle;whiteSpace=wrap;rounded=0;" parent="1" vertex="1">
          <mxGeometry x="680" y="142" width="382" height="30" as="geometry" />
        </mxCell>
        <mxCell id="FAUpBP3DlZ3lO1FXphOJ-1" value="&lt;font size=&quot;1&quot; face=&quot;Comic Sans MS&quot; style=&quot;&quot;&gt;&lt;b style=&quot;font-size: 22px;&quot;&gt;EduTeach&lt;/b&gt;&lt;/font&gt;" style="text;html=1;strokeColor=none;fillColor=none;align=center;verticalAlign=middle;whiteSpace=wrap;rounded=0;" parent="1" vertex="1">
          <mxGeometry x="106" y="142" width="160" height="30" as="geometry" />
        </mxCell>
        <mxCell id="yvdewNAwz-C425zP8fSh-1" value="" style="rounded=0;whiteSpace=wrap;html=1;" parent="1" vertex="1">
          <mxGeometry x="40" y="190" width="1030" height="530" as="geometry" />
        </mxCell>
        <mxCell id="yvdewNAwz-C425zP8fSh-2" value="&#xa;&lt;span style=&quot;font-family: Helvetica; font-size: 16px; font-style: normal; font-variant-ligatures: normal; font-variant-caps: normal; font-weight: 400; letter-spacing: normal; orphans: 2; text-align: center; text-indent: 0px; text-transform: none; widows: 2; word-spacing: 0px; -webkit-text-stroke-width: 0px; background-color: rgb(251, 251, 251); text-decoration-thickness: initial; text-decoration-style: initial; text-decoration-color: initial; float: none; display: inline !important;&quot;&gt;Module&lt;/span&gt;&#xa;&#xa;" style="rounded=0;whiteSpace=wrap;html=1;fontColor=default;" parent="1" vertex="1">
          <mxGeometry x="52" y="270" width="204" height="100" as="geometry" />
        </mxCell>
        <mxCell id="yvdewNAwz-C425zP8fSh-5" value="&lt;font style=&quot;font-size: 16px;&quot;&gt;Module&lt;/font&gt;" style="rounded=0;whiteSpace=wrap;html=1;fontColor=default;" parent="1" vertex="1">
          <mxGeometry x="259" y="270" width="204" height="100" as="geometry" />
        </mxCell>
        <mxCell id="yvdewNAwz-C425zP8fSh-6" value="&lt;font style=&quot;font-size: 16px;&quot;&gt;Module&lt;/font&gt;" style="rounded=0;whiteSpace=wrap;html=1;fontColor=default;" parent="1" vertex="1">
          <mxGeometry x="52" y="380" width="204" height="100" as="geometry" />
        </mxCell>
        <mxCell id="yvdewNAwz-C425zP8fSh-10" value="Examination Time Table" style="shape=table;childLayout=tableLayout;startSize=20;collapsible=0;recursiveResize=0;expand=0;fontSize=16;" parent="1" vertex="1">
          <mxGeometry x="50" y="520" width="990" height="183" as="geometry" />
        </mxCell>
        <mxCell id="yvdewNAwz-C425zP8fSh-11" value="16 sep" style="shape=tableRow;horizontal=0;swimlaneHead=0;swimlaneBody=0;top=0;left=0;strokeColor=inherit;bottom=0;right=0;dropTarget=0;fontStyle=0;fillColor=none;points=[[0,0.5],[1,0.5]];portConstraint=eastwest;startSize=40;collapsible=0;recursiveResize=0;expand=0;fontSize=16;" parent="yvdewNAwz-C425zP8fSh-10" vertex="1">
          <mxGeometry y="20" width="990" height="58" as="geometry" />
        </mxCell>
        <mxCell id="yvdewNAwz-C425zP8fSh-12" value="Module 1" style="swimlane;swimlaneHead=0;swimlaneBody=0;fontStyle=0;strokeColor=inherit;connectable=0;fillColor=none;startSize=20;collapsible=0;recursiveResize=0;expand=0;fontSize=16;" parent="yvdewNAwz-C425zP8fSh-11" vertex="1">
          <mxGeometry x="40" width="317" height="58" as="geometry">
            <mxRectangle width="317" height="58" as="alternateBounds" />
          </mxGeometry>
        </mxCell>
        <mxCell id="yvdewNAwz-C425zP8fSh-13" value="Module 2" style="swimlane;swimlaneHead=0;swimlaneBody=0;fontStyle=0;strokeColor=inherit;connectable=0;fillColor=none;startSize=20;collapsible=0;recursiveResize=0;expand=0;fontSize=16;" parent="yvdewNAwz-C425zP8fSh-11" vertex="1">
          <mxGeometry x="357" width="316" height="58" as="geometry">
            <mxRectangle width="316" height="58" as="alternateBounds" />
          </mxGeometry>
        </mxCell>
        <mxCell id="yvdewNAwz-C425zP8fSh-14" value="Module 3" style="swimlane;swimlaneHead=0;swimlaneBody=0;fontStyle=0;strokeColor=inherit;connectable=0;fillColor=none;startSize=20;collapsible=0;recursiveResize=0;expand=0;fontSize=16;" parent="yvdewNAwz-C425zP8fSh-11" vertex="1">
          <mxGeometry x="673" width="317" height="58" as="geometry">
            <mxRectangle width="317" height="58" as="alternateBounds" />
          </mxGeometry>
        </mxCell>
        <mxCell id="yvdewNAwz-C425zP8fSh-15" value="18 sep" style="shape=tableRow;horizontal=0;swimlaneHead=0;swimlaneBody=0;top=0;left=0;strokeColor=inherit;bottom=0;right=0;dropTarget=0;fontStyle=0;fillColor=none;points=[[0,0.5],[1,0.5]];portConstraint=eastwest;startSize=40;collapsible=0;recursiveResize=0;expand=0;fontSize=16;" parent="yvdewNAwz-C425zP8fSh-10" vertex="1">
          <mxGeometry y="78" width="990" height="51" as="geometry" />
        </mxCell>
        <mxCell id="yvdewNAwz-C425zP8fSh-16" value="" style="swimlane;swimlaneHead=0;swimlaneBody=0;fontStyle=0;connectable=0;strokeColor=inherit;fillColor=none;startSize=0;collapsible=0;recursiveResize=0;expand=0;fontSize=16;" parent="yvdewNAwz-C425zP8fSh-15" vertex="1">
          <mxGeometry x="40" width="317" height="51" as="geometry">
            <mxRectangle width="317" height="51" as="alternateBounds" />
          </mxGeometry>
        </mxCell>
        <mxCell id="yvdewNAwz-C425zP8fSh-17" value="" style="swimlane;swimlaneHead=0;swimlaneBody=0;fontStyle=0;connectable=0;strokeColor=inherit;fillColor=none;startSize=0;collapsible=0;recursiveResize=0;expand=0;fontSize=16;" parent="yvdewNAwz-C425zP8fSh-15" vertex="1">
          <mxGeometry x="357" width="316" height="51" as="geometry">
            <mxRectangle width="316" height="51" as="alternateBounds" />
          </mxGeometry>
        </mxCell>
        <mxCell id="yvdewNAwz-C425zP8fSh-18" value="" style="swimlane;swimlaneHead=0;swimlaneBody=0;fontStyle=0;connectable=0;strokeColor=inherit;fillColor=none;startSize=0;collapsible=0;recursiveResize=0;expand=0;fontSize=16;" parent="yvdewNAwz-C425zP8fSh-15" vertex="1">
          <mxGeometry x="673" width="317" height="51" as="geometry">
            <mxRectangle width="317" height="51" as="alternateBounds" />
          </mxGeometry>
        </mxCell>
        <mxCell id="yvdewNAwz-C425zP8fSh-19" value="20 sep" style="shape=tableRow;horizontal=0;swimlaneHead=0;swimlaneBody=0;top=0;left=0;strokeColor=inherit;bottom=0;right=0;dropTarget=0;fontStyle=0;fillColor=none;points=[[0,0.5],[1,0.5]];portConstraint=eastwest;startSize=40;collapsible=0;recursiveResize=0;expand=0;fontSize=16;" parent="yvdewNAwz-C425zP8fSh-10" vertex="1">
          <mxGeometry y="129" width="990" height="54" as="geometry" />
        </mxCell>
        <mxCell id="yvdewNAwz-C425zP8fSh-20" value="" style="swimlane;swimlaneHead=0;swimlaneBody=0;fontStyle=0;connectable=0;strokeColor=inherit;fillColor=none;startSize=0;collapsible=0;recursiveResize=0;expand=0;fontSize=16;" parent="yvdewNAwz-C425zP8fSh-19" vertex="1">
          <mxGeometry x="40" width="317" height="54" as="geometry">
            <mxRectangle width="317" height="54" as="alternateBounds" />
          </mxGeometry>
        </mxCell>
        <mxCell id="yvdewNAwz-C425zP8fSh-21" value="" style="swimlane;swimlaneHead=0;swimlaneBody=0;fontStyle=0;connectable=0;strokeColor=inherit;fillColor=none;startSize=0;collapsible=0;recursiveResize=0;expand=0;fontSize=16;" parent="yvdewNAwz-C425zP8fSh-19" vertex="1">
          <mxGeometry x="357" width="316" height="54" as="geometry">
            <mxRectangle width="316" height="54" as="alternateBounds" />
          </mxGeometry>
        </mxCell>
        <mxCell id="yvdewNAwz-C425zP8fSh-22" value="" style="swimlane;swimlaneHead=0;swimlaneBody=0;fontStyle=0;connectable=0;strokeColor=inherit;fillColor=none;startSize=0;collapsible=0;recursiveResize=0;expand=0;fontSize=16;" parent="yvdewNAwz-C425zP8fSh-19" vertex="1">
          <mxGeometry x="673" width="317" height="54" as="geometry">
            <mxRectangle width="317" height="54" as="alternateBounds" />
          </mxGeometry>
        </mxCell>
        <mxCell id="yvdewNAwz-C425zP8fSh-37" value="&lt;b style=&quot;border-color: var(--border-color);&quot;&gt;&lt;font style=&quot;border-color: var(--border-color); font-size: 18px;&quot;&gt;My Courses&lt;/font&gt;&lt;/b&gt;" style="rounded=0;whiteSpace=wrap;html=1;" parent="1" vertex="1">
          <mxGeometry x="33" y="198" width="218" height="50" as="geometry" />
        </mxCell>
        <mxCell id="yvdewNAwz-C425zP8fSh-39" value="&lt;b&gt;&lt;font style=&quot;font-size: 13px;&quot;&gt;Notifications&lt;/font&gt;&lt;/b&gt;" style="html=1;verticalLabelPosition=bottom;align=left;labelBackgroundColor=#ffffff;verticalAlign=top;strokeWidth=2;strokeColor=#0080F0;shadow=0;dashed=0;shape=mxgraph.ios7.icons.bell;labelPosition=right;spacingTop=-24;" parent="1" vertex="1">
          <mxGeometry x="954" y="231" width="24" height="23.099999999999998" as="geometry" />
        </mxCell>
        <mxCell id="yvdewNAwz-C425zP8fSh-40" value="" style="rounded=0;whiteSpace=wrap;html=1;" parent="1" vertex="1">
          <mxGeometry x="880" y="180" width="189" height="40" as="geometry" />
        </mxCell>
        <mxCell id="yvdewNAwz-C425zP8fSh-41" value="" style="verticalLabelPosition=bottom;shadow=0;dashed=0;align=center;html=1;verticalAlign=top;strokeWidth=1;shape=mxgraph.mockup.containers.userMale;strokeColor=#FFFFFF;strokeColor2=#008cff;labelBorderColor=none;labelBackgroundColor=none;" parent="1" vertex="1">
          <mxGeometry x="1033" y="185" width="30" height="30" as="geometry" />
        </mxCell>
        <mxCell id="yvdewNAwz-C425zP8fSh-42" value="&lt;b&gt;&lt;font style=&quot;font-size: 15px;&quot;&gt;Username&lt;/font&gt;&lt;/b&gt;&lt;br&gt;Register no&amp;nbsp;" style="text;html=1;strokeColor=none;fillColor=none;align=center;verticalAlign=middle;whiteSpace=wrap;rounded=0;" parent="1" vertex="1">
          <mxGeometry x="890" y="185" width="110" height="30" as="geometry" />
        </mxCell>
        <mxCell id="yvdewNAwz-C425zP8fSh-43" value="Course Name" style="html=1;shadow=0;dashed=0;shape=mxgraph.bootstrap.rrect;rSize=5;strokeColor=none;strokeWidth=1;fillColor=#6C767D;fontColor=#ffffff;whiteSpace=wrap;align=left;verticalAlign=middle;fontStyle=0;fontSize=14;spacingLeft=10;" parent="1" vertex="1">
          <mxGeometry x="277" y="210" width="343" height="35" as="geometry" />
        </mxCell>
        <mxCell id="yvdewNAwz-C425zP8fSh-44" value="" style="shape=triangle;direction=south;fillColor=#ffffff;strokeColor=none;perimeter=none;" parent="yvdewNAwz-C425zP8fSh-43" vertex="1">
          <mxGeometry x="1" y="0.5" width="10" height="5" relative="1" as="geometry">
            <mxPoint x="-17" y="-2.5" as="offset" />
          </mxGeometry>
        </mxCell>
        <mxCell id="yvdewNAwz-C425zP8fSh-50" value="" style="shape=image;html=1;verticalAlign=top;verticalLabelPosition=bottom;labelBackgroundColor=#ffffff;imageAspect=0;aspect=fixed;image=https://cdn4.iconfinder.com/data/icons/education-and-school-glyph-24-px/24/Awarded_cap_commencement_degree_cap_graduate_cap_mortarboard-128.png" parent="1" vertex="1">
          <mxGeometry x="42" y="203" width="40" height="40" as="geometry" />
        </mxCell>
        <mxCell id="_VqC2wyNt_ip1Qwadfa1-1" value="&lt;font style=&quot;font-size: 16px;&quot;&gt;Module&lt;/font&gt;" style="rounded=0;whiteSpace=wrap;html=1;fontColor=default;" vertex="1" parent="1">
          <mxGeometry x="259" y="380" width="204" height="100" as="geometry" />
        </mxCell>
        <mxCell id="_VqC2wyNt_ip1Qwadfa1-56" value="Module" style="html=1;fillColor=none;strokeColor=none;fontSize=11;align=left;fontColor=#596780;whiteSpace=wrap;sketch=1;hachureGap=4;pointerEvents=0;fontFamily=Architects Daughter;fontSource=https%3A%2F%2Ffonts.googleapis.com%2Fcss%3Ffamily%3DArchitects%2BDaughter;" vertex="1" parent="1">
          <mxGeometry x="528" y="301" width="150" height="20" as="geometry" />
        </mxCell>
        <mxCell id="_VqC2wyNt_ip1Qwadfa1-57" value="link" style="html=1;fillColor=none;strokeColor=none;fontSize=11;align=left;fontColor=#596780;whiteSpace=wrap;sketch=1;hachureGap=4;pointerEvents=0;fontFamily=Architects Daughter;fontSource=https%3A%2F%2Ffonts.googleapis.com%2Fcss%3Ffamily%3DArchitects%2BDaughter;" vertex="1" parent="1">
          <mxGeometry x="637" y="301" width="40" height="20" as="geometry" />
        </mxCell>
        <mxCell id="_VqC2wyNt_ip1Qwadfa1-59" value="Duration" style="html=1;fillColor=none;strokeColor=none;fontSize=11;align=left;fontColor=#596780;whiteSpace=wrap;sketch=1;hachureGap=4;pointerEvents=0;fontFamily=Architects Daughter;fontSource=https%3A%2F%2Ffonts.googleapis.com%2Fcss%3Ffamily%3DArchitects%2BDaughter;" vertex="1" parent="1">
          <mxGeometry x="730" y="301" width="90" height="20" as="geometry" />
        </mxCell>
        <mxCell id="_VqC2wyNt_ip1Qwadfa1-60" value="Lec. No" style="html=1;fillColor=none;strokeColor=none;fontSize=11;align=center;fontColor=#596780;whiteSpace=wrap;sketch=1;hachureGap=4;pointerEvents=0;fontFamily=Architects Daughter;fontSource=https%3A%2F%2Ffonts.googleapis.com%2Fcss%3Ffamily%3DArchitects%2BDaughter;" vertex="1" parent="1">
          <mxGeometry x="847" y="301" width="90" height="20" as="geometry" />
        </mxCell>
        <mxCell id="_VqC2wyNt_ip1Qwadfa1-62" value="" style="shape=line;strokeWidth=2;html=1;strokeColor=#DFE1E5;resizeWidth=1;sketch=1;hachureGap=4;pointerEvents=0;fontFamily=Architects Daughter;fontSource=https%3A%2F%2Ffonts.googleapis.com%2Fcss%3Ffamily%3DArchitects%2BDaughter;fontSize=20;" vertex="1" parent="1">
          <mxGeometry x="528" y="321" width="519" height="10" as="geometry" />
        </mxCell>
        <mxCell id="_VqC2wyNt_ip1Qwadfa1-63" value="" style="strokeColor=none;fillColor=#FAFBFC;html=1;sketch=1;hachureGap=4;pointerEvents=0;fontFamily=Architects Daughter;fontSource=https%3A%2F%2Ffonts.googleapis.com%2Fcss%3Ffamily%3DArchitects%2BDaughter;fontSize=20;" vertex="1" parent="1">
          <mxGeometry x="518" y="327" width="519" height="30" as="geometry" />
        </mxCell>
        <mxCell id="_VqC2wyNt_ip1Qwadfa1-64" value="Module 1" style="strokeColor=none;fillColor=none;fontSize=12;fontColor=#596780;align=left;html=1;sketch=1;hachureGap=4;pointerEvents=0;fontFamily=Architects Daughter;fontSource=https%3A%2F%2Ffonts.googleapis.com%2Fcss%3Ffamily%3DArchitects%2BDaughter;" vertex="1" parent="1">
          <mxGeometry x="528" y="332" width="50" height="20" as="geometry" />
        </mxCell>
        <mxCell id="_VqC2wyNt_ip1Qwadfa1-66" value="2 hover 30 minutes" style="strokeColor=none;fillColor=none;fontSize=12;fontColor=#596780;align=left;html=1;sketch=1;hachureGap=4;pointerEvents=0;fontFamily=Architects Daughter;fontSource=https%3A%2F%2Ffonts.googleapis.com%2Fcss%3Ffamily%3DArchitects%2BDaughter;" vertex="1" parent="1">
          <mxGeometry x="730" y="332" width="50" height="20" as="geometry" />
        </mxCell>
        <mxCell id="_VqC2wyNt_ip1Qwadfa1-67" value="&amp;#8226;&amp;#8226;&amp;#8226;" style="shape=ellipse;fillColor=#0057D8;strokeColor=none;fontColor=#ffffff;align=center;verticalAlign=middle;whiteSpace=wrap;fontSize=10;fontStyle=0;html=1;sketch=0;hachureGap=4;pointerEvents=0;fontFamily=Architects Daughter;fontSource=https%3A%2F%2Ffonts.googleapis.com%2Fcss%3Ffamily%3DArchitects%2BDaughter;" vertex="1" parent="1">
          <mxGeometry x="1010" y="454" width="16" height="16" as="geometry" />
        </mxCell>
        <mxCell id="_VqC2wyNt_ip1Qwadfa1-72" value="Module 2" style="strokeColor=none;fillColor=none;fontSize=12;fontColor=#596780;align=left;html=1;sketch=1;hachureGap=4;pointerEvents=0;fontFamily=Architects Daughter;fontSource=https%3A%2F%2Ffonts.googleapis.com%2Fcss%3Ffamily%3DArchitects%2BDaughter;" vertex="1" parent="1">
          <mxGeometry x="528" y="362" width="240" height="20" as="geometry" />
        </mxCell>
        <mxCell id="_VqC2wyNt_ip1Qwadfa1-73" value="" style="shape=mxgraph.mockup.misc.progressBar;fillColor=#3384FF;strokeColor=none;fillColor2=#F2F2F2;barPos=80;sketch=1;hachureGap=4;pointerEvents=0;fontFamily=Architects Daughter;fontSource=https%3A%2F%2Ffonts.googleapis.com%2Fcss%3Ffamily%3DArchitects%2BDaughter;fontSize=20;" vertex="1" parent="1">
          <mxGeometry x="630" y="367" width="80" height="10" as="geometry" />
        </mxCell>
        <mxCell id="_VqC2wyNt_ip1Qwadfa1-76" value="2 hover 30 minutes" style="strokeColor=none;fillColor=none;fontSize=12;fontColor=#596780;align=left;html=1;sketch=1;hachureGap=4;pointerEvents=0;fontFamily=Architects Daughter;fontSource=https%3A%2F%2Ffonts.googleapis.com%2Fcss%3Ffamily%3DArchitects%2BDaughter;" vertex="1" parent="1">
          <mxGeometry x="730" y="362" width="50" height="20" as="geometry" />
        </mxCell>
        <mxCell id="_VqC2wyNt_ip1Qwadfa1-77" value="#10258" style="strokeColor=none;fillColor=none;fontSize=12;fontColor=#596780;align=left;html=1;sketch=1;hachureGap=4;pointerEvents=0;fontFamily=Architects Daughter;fontSource=https%3A%2F%2Ffonts.googleapis.com%2Fcss%3Ffamily%3DArchitects%2BDaughter;" vertex="1" parent="1">
          <mxGeometry x="872" y="362" width="50" height="20" as="geometry" />
        </mxCell>
        <mxCell id="_VqC2wyNt_ip1Qwadfa1-78" value="Live" style="strokeColor=none;fillColor=#CCE0FF;fontSize=11;fontColor=#3384FF;rounded=1;html=1;align=center;fontStyle=1;sketch=1;hachureGap=4;pointerEvents=0;fontFamily=Architects Daughter;fontSource=https%3A%2F%2Ffonts.googleapis.com%2Fcss%3Ffamily%3DArchitects%2BDaughter;" vertex="1" parent="1">
          <mxGeometry x="938" y="362" width="40" height="20" as="geometry" />
        </mxCell>
        <mxCell id="_VqC2wyNt_ip1Qwadfa1-79" value="&amp;#8226;&amp;#8226;&amp;#8226;" style="shape=ellipse;fillColor=#0057D8;strokeColor=none;fontColor=#ffffff;align=center;verticalAlign=middle;whiteSpace=wrap;fontSize=10;fontStyle=0;html=1;sketch=0;hachureGap=4;pointerEvents=0;fontFamily=Architects Daughter;fontSource=https%3A%2F%2Ffonts.googleapis.com%2Fcss%3Ffamily%3DArchitects%2BDaughter;" vertex="1" parent="1">
          <mxGeometry x="1010" y="364" width="16" height="16" as="geometry" />
        </mxCell>
        <mxCell id="_VqC2wyNt_ip1Qwadfa1-80" value="Module 3" style="strokeColor=none;fillColor=none;fontSize=12;fontColor=#596780;align=left;html=1;sketch=1;hachureGap=4;pointerEvents=0;fontFamily=Architects Daughter;fontSource=https%3A%2F%2Ffonts.googleapis.com%2Fcss%3Ffamily%3DArchitects%2BDaughter;" vertex="1" parent="1">
          <mxGeometry x="528" y="392" width="240" height="20" as="geometry" />
        </mxCell>
        <mxCell id="_VqC2wyNt_ip1Qwadfa1-81" value="" style="shape=mxgraph.mockup.misc.progressBar;fillColor=#3384FF;strokeColor=none;fillColor2=#F2F2F2;barPos=80;sketch=1;hachureGap=4;pointerEvents=0;fontFamily=Architects Daughter;fontSource=https%3A%2F%2Ffonts.googleapis.com%2Fcss%3Ffamily%3DArchitects%2BDaughter;fontSize=20;" vertex="1" parent="1">
          <mxGeometry x="630" y="397" width="80" height="10" as="geometry" />
        </mxCell>
        <mxCell id="_VqC2wyNt_ip1Qwadfa1-84" value="2 hover 30 minutes" style="strokeColor=none;fillColor=none;fontSize=12;fontColor=#596780;align=left;html=1;sketch=1;hachureGap=4;pointerEvents=0;fontFamily=Architects Daughter;fontSource=https%3A%2F%2Ffonts.googleapis.com%2Fcss%3Ffamily%3DArchitects%2BDaughter;" vertex="1" parent="1">
          <mxGeometry x="730" y="392" width="50" height="20" as="geometry" />
        </mxCell>
        <mxCell id="_VqC2wyNt_ip1Qwadfa1-85" value="#10232" style="strokeColor=none;fillColor=none;fontSize=12;fontColor=#596780;align=left;html=1;sketch=1;hachureGap=4;pointerEvents=0;fontFamily=Architects Daughter;fontSource=https%3A%2F%2Ffonts.googleapis.com%2Fcss%3Ffamily%3DArchitects%2BDaughter;" vertex="1" parent="1">
          <mxGeometry x="872" y="392" width="50" height="20" as="geometry" />
        </mxCell>
        <mxCell id="_VqC2wyNt_ip1Qwadfa1-86" value="Live" style="strokeColor=none;fillColor=#CCE0FF;fontSize=11;fontColor=#3384FF;rounded=1;html=1;align=center;fontStyle=1;sketch=1;hachureGap=4;pointerEvents=0;fontFamily=Architects Daughter;fontSource=https%3A%2F%2Ffonts.googleapis.com%2Fcss%3Ffamily%3DArchitects%2BDaughter;" vertex="1" parent="1">
          <mxGeometry x="938" y="392" width="40" height="20" as="geometry" />
        </mxCell>
        <mxCell id="_VqC2wyNt_ip1Qwadfa1-87" value="&amp;#8226;&amp;#8226;&amp;#8226;" style="shape=ellipse;fillColor=#0057D8;strokeColor=none;fontColor=#ffffff;align=center;verticalAlign=middle;whiteSpace=wrap;fontSize=10;fontStyle=0;html=1;sketch=0;hachureGap=4;pointerEvents=0;fontFamily=Architects Daughter;fontSource=https%3A%2F%2Ffonts.googleapis.com%2Fcss%3Ffamily%3DArchitects%2BDaughter;" vertex="1" parent="1">
          <mxGeometry x="1010" y="394" width="16" height="16" as="geometry" />
        </mxCell>
        <mxCell id="_VqC2wyNt_ip1Qwadfa1-88" value="Module 2" style="strokeColor=none;fillColor=none;fontSize=12;fontColor=#596780;align=left;html=1;sketch=1;hachureGap=4;pointerEvents=0;fontFamily=Architects Daughter;fontSource=https%3A%2F%2Ffonts.googleapis.com%2Fcss%3Ffamily%3DArchitects%2BDaughter;" vertex="1" parent="1">
          <mxGeometry x="528" y="422" width="240" height="20" as="geometry" />
        </mxCell>
        <mxCell id="_VqC2wyNt_ip1Qwadfa1-89" value="" style="shape=mxgraph.mockup.misc.progressBar;fillColor=#3384FF;strokeColor=none;fillColor2=#F2F2F2;barPos=80;sketch=1;hachureGap=4;pointerEvents=0;fontFamily=Architects Daughter;fontSource=https%3A%2F%2Ffonts.googleapis.com%2Fcss%3Ffamily%3DArchitects%2BDaughter;fontSize=20;" vertex="1" parent="1">
          <mxGeometry x="630" y="427" width="80" height="10" as="geometry" />
        </mxCell>
        <mxCell id="_VqC2wyNt_ip1Qwadfa1-92" value="2 hover 30 minutes" style="strokeColor=none;fillColor=none;fontSize=12;fontColor=#596780;align=left;html=1;sketch=1;hachureGap=4;pointerEvents=0;fontFamily=Architects Daughter;fontSource=https%3A%2F%2Ffonts.googleapis.com%2Fcss%3Ffamily%3DArchitects%2BDaughter;" vertex="1" parent="1">
          <mxGeometry x="730" y="422" width="50" height="20" as="geometry" />
        </mxCell>
        <mxCell id="_VqC2wyNt_ip1Qwadfa1-93" value="#10267" style="strokeColor=none;fillColor=none;fontSize=12;fontColor=#596780;align=left;html=1;sketch=1;hachureGap=4;pointerEvents=0;fontFamily=Architects Daughter;fontSource=https%3A%2F%2Ffonts.googleapis.com%2Fcss%3Ffamily%3DArchitects%2BDaughter;" vertex="1" parent="1">
          <mxGeometry x="872" y="422" width="50" height="20" as="geometry" />
        </mxCell>
        <mxCell id="_VqC2wyNt_ip1Qwadfa1-94" value="Recoded" style="strokeColor=none;fillColor=#CCE0FF;fontSize=11;fontColor=#3384FF;rounded=1;html=1;align=center;fontStyle=1;sketch=1;hachureGap=4;pointerEvents=0;fontFamily=Architects Daughter;fontSource=https%3A%2F%2Ffonts.googleapis.com%2Fcss%3Ffamily%3DArchitects%2BDaughter;" vertex="1" parent="1">
          <mxGeometry x="938" y="422" width="40" height="20" as="geometry" />
        </mxCell>
        <mxCell id="_VqC2wyNt_ip1Qwadfa1-95" value="&amp;#8226;&amp;#8226;&amp;#8226;" style="shape=ellipse;fillColor=#0057D8;strokeColor=none;fontColor=#ffffff;align=center;verticalAlign=middle;whiteSpace=wrap;fontSize=10;fontStyle=0;html=1;sketch=0;hachureGap=4;pointerEvents=0;fontFamily=Architects Daughter;fontSource=https%3A%2F%2Ffonts.googleapis.com%2Fcss%3Ffamily%3DArchitects%2BDaughter;" vertex="1" parent="1">
          <mxGeometry x="1010" y="424" width="16" height="16" as="geometry" />
        </mxCell>
        <mxCell id="_VqC2wyNt_ip1Qwadfa1-96" value="Module 1" style="strokeColor=none;fillColor=none;fontSize=12;fontColor=#596780;align=left;html=1;sketch=1;hachureGap=4;pointerEvents=0;fontFamily=Architects Daughter;fontSource=https%3A%2F%2Ffonts.googleapis.com%2Fcss%3Ffamily%3DArchitects%2BDaughter;" vertex="1" parent="1">
          <mxGeometry x="528" y="452" width="240" height="20" as="geometry" />
        </mxCell>
        <mxCell id="_VqC2wyNt_ip1Qwadfa1-97" value="" style="shape=mxgraph.mockup.misc.progressBar;fillColor=#3384FF;strokeColor=none;fillColor2=#F2F2F2;barPos=80;sketch=1;hachureGap=4;pointerEvents=0;fontFamily=Architects Daughter;fontSource=https%3A%2F%2Ffonts.googleapis.com%2Fcss%3Ffamily%3DArchitects%2BDaughter;fontSize=20;" vertex="1" parent="1">
          <mxGeometry x="630" y="457" width="80" height="10" as="geometry" />
        </mxCell>
        <mxCell id="_VqC2wyNt_ip1Qwadfa1-100" value="2 hover 30 minutes" style="strokeColor=none;fillColor=none;fontSize=12;fontColor=#596780;align=left;html=1;sketch=1;hachureGap=4;pointerEvents=0;fontFamily=Architects Daughter;fontSource=https%3A%2F%2Ffonts.googleapis.com%2Fcss%3Ffamily%3DArchitects%2BDaughter;" vertex="1" parent="1">
          <mxGeometry x="730" y="452" width="50" height="20" as="geometry" />
        </mxCell>
        <mxCell id="_VqC2wyNt_ip1Qwadfa1-101" value="#10244" style="strokeColor=none;fillColor=none;fontSize=12;fontColor=#0057D8;align=left;html=1;sketch=1;hachureGap=4;pointerEvents=0;fontFamily=Architects Daughter;fontSource=https%3A%2F%2Ffonts.googleapis.com%2Fcss%3Ffamily%3DArchitects%2BDaughter;" vertex="1" parent="1">
          <mxGeometry x="872" y="452" width="50" height="20" as="geometry" />
        </mxCell>
        <mxCell id="_VqC2wyNt_ip1Qwadfa1-102" value="Live" style="strokeColor=none;fillColor=#CCE0FF;fontSize=11;fontColor=#3384FF;rounded=1;html=1;align=center;fontStyle=1;sketch=1;hachureGap=4;pointerEvents=0;fontFamily=Architects Daughter;fontSource=https%3A%2F%2Ffonts.googleapis.com%2Fcss%3Ffamily%3DArchitects%2BDaughter;" vertex="1" parent="1">
          <mxGeometry x="938" y="452" width="40" height="20" as="geometry" />
        </mxCell>
        <mxCell id="_VqC2wyNt_ip1Qwadfa1-103" value="" style="html=1;shadow=0;dashed=0;shape=mxgraph.atlassian.checkbox;fillColor=#008465;strokeColor=none;fontColor=#ffffff;align=center;verticalAlign=middle;whiteSpace=wrap;fontSize=10;fontStyle=0;html=1;sketch=0;hachureGap=4;pointerEvents=0;fontFamily=Architects Daughter;fontSource=https%3A%2F%2Ffonts.googleapis.com%2Fcss%3Ffamily%3DArchitects%2BDaughter;" vertex="1" parent="1">
          <mxGeometry x="1010" y="334" width="16" height="16" as="geometry" />
        </mxCell>
        <mxCell id="_VqC2wyNt_ip1Qwadfa1-104" value="" style="shape=line;strokeWidth=2;html=1;strokeColor=#DFE1E5;resizeWidth=1;sketch=1;hachureGap=4;pointerEvents=0;fontFamily=Architects Daughter;fontSource=https%3A%2F%2Ffonts.googleapis.com%2Fcss%3Ffamily%3DArchitects%2BDaughter;fontSize=20;" vertex="1" parent="1">
          <mxGeometry x="528" y="480" width="519" height="10" as="geometry" />
        </mxCell>
        <mxCell id="_VqC2wyNt_ip1Qwadfa1-108" value="" style="shape=mxgraph.mockup.misc.progressBar;fillColor=#3384FF;strokeColor=none;fillColor2=#F2F2F2;barPos=80;sketch=1;hachureGap=4;pointerEvents=0;fontFamily=Architects Daughter;fontSource=https%3A%2F%2Ffonts.googleapis.com%2Fcss%3Ffamily%3DArchitects%2BDaughter;fontSize=20;" vertex="1" parent="1">
          <mxGeometry x="630" y="340" width="80" height="10" as="geometry" />
        </mxCell>
        <mxCell id="_VqC2wyNt_ip1Qwadfa1-112" value="&lt;b&gt;Lectures Links&lt;/b&gt;" style="text;html=1;strokeColor=none;fillColor=none;align=center;verticalAlign=middle;whiteSpace=wrap;rounded=0;" vertex="1" parent="1">
          <mxGeometry x="688.8" y="270" width="140" height="30" as="geometry" />
        </mxCell>
        <mxCell id="_VqC2wyNt_ip1Qwadfa1-113" value="#10258" style="strokeColor=none;fillColor=none;fontSize=12;fontColor=#596780;align=left;html=1;sketch=1;hachureGap=4;pointerEvents=0;fontFamily=Architects Daughter;fontSource=https%3A%2F%2Ffonts.googleapis.com%2Fcss%3Ffamily%3DArchitects%2BDaughter;" vertex="1" parent="1">
          <mxGeometry x="869" y="335" width="50" height="20" as="geometry" />
        </mxCell>
        <mxCell id="_VqC2wyNt_ip1Qwadfa1-115" value="Recoded" style="strokeColor=none;fillColor=#CCE0FF;fontSize=11;fontColor=#3384FF;rounded=1;html=1;align=center;fontStyle=1;sketch=1;hachureGap=4;pointerEvents=0;fontFamily=Architects Daughter;fontSource=https%3A%2F%2Ffonts.googleapis.com%2Fcss%3Ffamily%3DArchitects%2BDaughter;" vertex="1" parent="1">
          <mxGeometry x="938" y="337" width="40" height="20" as="geometry" />
        </mxCell>
      </root>
    </mxGraphModel>
  </diagram>
</mxfile>
